<svg xmlns="http://www.w3.org/2000/svg" viewBox="0 0 64 64" role="img" aria-label="TikTok">
  <rect width="64" height="64" rx="14" fill="#050505"/>
  <path fill="#25f4ee" d="M34 12h7c1 8 5 13 12 14v7c-5 0-9-2-12-5v14c0 8-6 14-15 14-7 0-13-5-13-12s6-12 13-12c1 0 3 0 4 1v8c-1-1-2-1-4-1-3 0-5 2-5 5s2 5 5 5c4 0 6-2 6-7z"/>
  <path fill="#fe2c55" d="M37 12h4c1 8 5 13 12 14v4c-6-1-11-3-15-8v21c0 8-6 14-15 14-4 0-7-1-10-4 2 1 4 2 7 2 8 0 15-6 15-14V12z"/>
  <path fill="#fff" d="M34 12h5c1 8 6 14 14 15v5c-5 0-10-2-14-6v17c0 8-6 14-14 14-7 0-13-5-13-12s6-12 13-12c2 0 3 0 5 1v6c-1-1-3-1-4-1-3 0-6 3-6 6s3 6 6 6c4 0 8-3 8-8z"/>
</svg>
